<?xml version="1.0" standalone="no"?>
<!DOCTYPE svg PUBLIC "-//W3C//DTD SVG 1.1//EN" "http://www.w3.org/Graphics/SVG/1.1/DTD/svg11.dtd" >
<svg xmlns="http://www.w3.org/2000/svg">
<metadata>Generated by IcoMoon</metadata>
<defs>
<font id="Pages-icon" horiz-adv-x="512">
<font-face units-per-em="512" ascent="512" descent="0" />
<missing-glyph horiz-adv-x="512" />
<glyph unicode="&#x20;" horiz-adv-x="0" d="" />
<glyph unicode="&#xe600;" glyph-name="refresh_new" d="M237.714 402.286c-90.88 0-164.571-73.692-164.571-164.572 0-90.844 73.691-164.571 164.571-164.571 90.844 0 164.571 73.728 164.571 164.572 0 90.88-73.728 164.572-164.571 164.572zM237.714 146.286c-50.505 0-91.428 40.96-91.428 91.428 0 50.505 40.923 91.428 91.428 91.428s91.428-40.923 91.428-91.428c0-50.469-40.923-91.428-91.428-91.428z" />
<glyph unicode="&#xe601;" glyph-name="close_line" d="M402.286 91.428c-4.681 0-9.363 1.792-12.947 5.339l-292.572 292.572c-7.132 7.132-7.132 18.724 0 25.856s18.725 7.132 25.856 0l292.572-292.572c7.132-7.132 7.132-18.724 0-25.856-3.548-3.548-8.228-5.339-12.909-5.339zM109.715 91.428c-4.681 0-9.362 1.792-12.947 5.339-7.132 7.132-7.132 18.724 0 25.856l292.572 292.572c7.132 7.132 18.724 7.132 25.856 0s7.132-18.724 0-25.856l-292.572-292.572c-3.547-3.548-8.228-5.339-12.909-5.339z" />
<glyph unicode="&#xe602;" glyph-name="bag" d="M182.857 438.857h146.286v-73.143h36.572v109.714h-219.429v-109.714h36.571zM36.572 0h438.857l36.571 256h-512zM0 329.143h512v-36.572h-512v36.572z" />
<glyph unicode="&#xe603;" glyph-name="bag1" d="M365.714 329.143h-219.429c-40.375 0-73.143-32.768-73.143-73.143v-182.857c0-40.375 32.768-73.143 73.143-73.143h219.429c40.375 0 73.143 32.768 73.143 73.143v182.857c0 40.375-32.768 73.143-73.143 73.143zM182.857 182.857c-20.188 0-36.571 16.348-36.571 36.572 0 20.188 16.384 36.572 36.572 36.572s36.572-16.384 36.572-36.572c0-20.224-16.384-36.572-36.572-36.572zM329.143 182.857c-20.224 0-36.572 16.348-36.572 36.572 0 20.188 16.348 36.572 36.572 36.572s36.572-16.384 36.572-36.572c0-20.224-16.348-36.572-36.572-36.572zM182.857 365.714v73.143c0 20.188 16.384 36.572 36.571 36.572h73.143c20.224 0 36.572-16.384 36.572-36.572v-73.143h36.572v109.714c0 20.188-16.348 36.572-36.572 36.572h-146.286c-20.188 0-36.572-16.384-36.572-36.572v-109.714h36.572z" />
<glyph unicode="&#xe604;" glyph-name="bold" d="M268.068 36.572h-192.073v438.748h170.715c29.696 0 55.332-3.584 76.909-10.679 21.541-7.095 37.705-16.749 48.603-28.891 19.675-22.565 29.476-48.091 29.476-76.581 0-34.304-11.081-59.794-33.207-76.581-7.57-5.851-12.8-9.508-15.726-10.971-2.925-1.5-8.192-3.876-15.726-7.204 27.245-5.888 48.896-18.14 64.951-36.718 16.128-18.615 24.173-41.764 24.173-69.376 0-30.5-10.459-57.49-31.378-80.969-24.247-27.173-66.45-40.777-126.72-40.777zM173.934 297.692h46.446c27.209 0 47.36 2.962 60.563 8.777 13.202 5.851 19.748 18.505 19.748 37.998 0 19.456-6.034 32.329-18.176 38.583-12.142 6.291-32.621 9.399-61.513 9.399h-47.067v-94.757zM173.934 119.442h67.109c28.014 0 49.079 3.438 63.123 10.276 14.007 6.949 21.029 20.553 21.029 40.851s-7.461 33.719-22.272 40.265c-14.885 6.363-38.62 9.655-71.241 9.655h-57.746v-101.047z" />
<glyph unicode="&#xe605;" glyph-name="calender" d="M146.286 475.428v36.572h-73.143v-36.572h36.572zM402.286 475.428v36.572h-73.143v-36.572h36.572zM438.857 438.857h-438.857v-438.857h475.428v438.857h-36.572zM109.715 36.572h-73.143v73.143h73.143v-73.143zM109.715 146.286h-73.143v73.143h73.143v-73.143zM219.429 36.572h-73.143v73.143h73.143v-73.143zM219.429 146.286h-73.143v73.143h73.143v-73.143zM219.429 256h-73.143v73.143h73.143v-73.143zM329.143 36.572h-73.143v73.143h73.143v-73.143zM329.143 146.286h-73.143v73.143h73.143v-73.143zM329.143 256h-73.143v73.143h73.143v-73.143zM438.857 36.572h-73.143v73.143h73.143v-73.143zM438.857 146.286h-73.143v73.143h73.143v-73.143zM438.857 256h-73.143v73.143h73.143v-73.143z" />
<glyph unicode="&#xe606;" glyph-name="camera" d="M292.572 219.428c0-60.594-49.121-109.714-109.714-109.714s-109.715 49.121-109.715 109.714c0 60.594 49.121 109.714 109.715 109.714s109.714-49.121 109.714-109.714zM219.429 402.286v36.571h-36.571v-36.571h-36.572v36.571h-73.143v-36.571h-73.143v-365.714h512v365.714h-292.572zM182.857 73.143c-80.787 0-146.286 65.5-146.286 146.286s65.499 146.286 146.286 146.286 146.286-65.5 146.286-146.286-65.5-146.286-146.286-146.286zM475.428 292.572h-109.714v73.143h109.714v-73.143z" />
<glyph unicode="&#xe607;" glyph-name="centeralign" d="M36.572 438.857h438.857v-73.143h-438.857v73.143zM36.572 146.286h438.857v-73.143h-438.857v73.143zM146.286 292.572h219.429v-73.143h-219.429v73.143z" />
<glyph unicode="&#xe608;" glyph-name="charts" d="M0 475.428v-475.428h512v475.428h-512zM36.572 438.857h438.857v-402.285h-438.857v402.286zM219.429 365.714v-256h73.143v256h-73.143zM329.143 329.143v-219.429h73.143v219.429h-73.143zM109.715 292.572v-182.857h73.143v182.857h-73.143z" />
<glyph unicode="&#xe609;" glyph-name="clock" d="M402.286 512h-292.572c-60.599 0-109.715-49.115-109.715-109.714v-292.572c0-60.599 49.115-109.714 109.715-109.714h292.572c60.599 0 109.714 49.115 109.714 109.714v292.572c0 60.599-49.115 109.714-109.714 109.714zM438.857 125.404c0-28.855-23.406-52.26-52.26-52.26h-261.193c-28.855 0-52.261 23.406-52.261 52.26v261.193c0 28.855 23.406 52.26 52.261 52.26h261.229c28.818 0 52.224-23.405 52.224-52.26v-261.193zM219.429 365.714h36.571v-146.286h-36.572v146.286zM219.429 256h109.715v-36.572h-109.714v36.572z" />
<glyph unicode="&#xe60a;" glyph-name="close" d="M277.979 237.714l79.397 79.433c11.154 11.118 11.154 29.111 0 40.228-11.081 11.118-29.075 11.118-40.228 0l-79.433-79.469-79.433 79.469c-11.118 11.118-29.075 11.118-40.228 0s-11.118-29.111 0-40.228l79.469-79.433-79.469-79.433c-11.117-11.154-11.117-29.147 0-40.265 5.559-5.559 12.836-8.301 20.115-8.301s14.592 2.743 20.114 8.339l79.433 79.397 79.397-79.433c5.596-5.559 12.873-8.301 20.188-8.301s14.519 2.743 20.077 8.339c11.154 11.118 11.154 29.111 0 40.265l-79.397 79.397z" />
<glyph unicode="&#xe60b;" glyph-name="arrow_down" d="M73.143 329.143l182.857-182.857 182.857 182.857z" />
<glyph unicode="&#xe60c;" glyph-name="comment" d="M73.143 512c-40.521 0-73.143-32.621-73.143-73.143v-292.572c0-40.521 32.621-73.143 73.143-73.143h292.572v-73.143l73.143 73.143c40.521 0 73.143 32.621 73.143 73.143v292.572c0 40.521-32.621 73.143-73.143 73.143h-365.714zM73.143 475.428h365.714c20.26 0 36.572-16.311 36.572-36.572v-292.572c0-20.26-16.311-36.572-36.572-36.572h-365.714c-20.261 0-36.572 16.311-36.572 36.572v292.572c0 20.26 16.311 36.572 36.572 36.572zM146.286 329.143c-20.198 0-36.572-16.374-36.572-36.572s16.373-36.572 36.572-36.572c20.198 0 36.572 16.374 36.572 36.572s-16.374 36.572-36.572 36.572zM256 329.143c-20.198 0-36.572-16.374-36.572-36.572s16.374-36.572 36.572-36.572c20.198 0 36.572 16.374 36.572 36.572s-16.373 36.572-36.572 36.572zM365.714 329.143c-20.198 0-36.572-16.374-36.572-36.572s16.373-36.572 36.572-36.572c20.198 0 36.572 16.374 36.572 36.572s-16.373 36.572-36.572 36.572z" />
<glyph unicode="&#xe60d;" glyph-name="contact_book" d="M475.428 475.428h36.572v-146.286h-36.572v146.286zM475.428 292.572h36.572v-146.286h-36.572v146.286zM0 438.857v-365.714c0-40.375 32.768-73.143 73.143-73.143v512c-40.375 0-73.143-32.768-73.143-73.143zM365.714 512h-256v-512h256c40.375 0 73.143 32.768 73.143 73.143v365.714c0 40.375-32.768 73.143-73.143 73.143z" />
<glyph unicode="&#xe60e;" glyph-name="credit_card_line" d="M475.428 402.286h-438.857c-20.188 0-36.572-16.384-36.572-36.572v-256c0-20.224 16.384-36.572 36.572-36.572h438.857c20.224 0 36.572 16.348 36.572 36.572v256c0 20.188-16.348 36.572-36.572 36.572zM475.428 137.911c0-15.579-13.751-28.197-30.757-28.197h-377.38c-16.969 0-30.72 12.617-30.72 28.197v118.089h438.857v-118.089zM36.572 329.143v8.375c0 15.579 13.751 28.196 30.72 28.196h377.38c17.005 0 30.757-12.617 30.757-28.197v-8.375h-438.857zM146.286 182.857h182.857v-36.572h-182.857v36.572zM365.714 182.857h73.143v-36.572h-73.143v36.572z" />
<glyph unicode="&#xe60f;" glyph-name="credit_card" d="M0 109.714c0-20.224 16.384-36.572 36.572-36.572h438.857c20.224 0 36.571 16.348 36.571 36.572v146.286h-512v-146.286zM292.572 182.857h146.286v-36.572h-146.286v36.572zM182.857 182.857h73.143v-36.572h-73.143v36.572zM475.428 402.286h-438.857c-20.188 0-36.572-16.384-36.572-36.572v-36.572h512v36.572c0 20.188-16.348 36.572-36.572 36.572z" />
<glyph unicode="&#xe610;" glyph-name="cupboard" d="M73.143 512v-146.286h365.714v146.286h-365.714zM219.429 438.857h73.143v-36.571h-73.143v36.571zM73.143 329.143v-146.286h365.714v146.286h-365.714zM219.429 256h73.143v-36.572h-73.143v36.572zM73.143 146.286v-146.286h365.714v146.286h-365.714zM219.429 73.143h73.143v-36.572h-73.143v36.572z" />
<glyph unicode="&#xe611;" glyph-name="desktop" d="M0 475.428v-365.714h219.429v-36.572h-73.143v-36.572h219.429v36.572h-73.143v36.572h219.428v365.714h-512zM36.572 438.857h438.857v-292.572h-438.857v292.572z" />
<glyph unicode="&#xe612;" glyph-name="download" d="M329.143 365.714v146.286h-146.286v-146.286h-109.715l182.857-182.857 182.857 182.857zM0 109.714h512v-109.714h-512v109.714z" />
<glyph unicode="&#xe613;" glyph-name="eraser" d="M438.857 365.714v73.143c0 40.375-32.768 73.143-73.143 73.143h-219.429c-40.375 0-73.143-32.768-73.143-73.143v-73.143h365.714zM73.143 329.143v-256c0-40.375 32.768-73.143 73.143-73.143h219.429c40.375 0 73.143 32.768 73.143 73.143v256h-365.714zM219.429 73.143h-73.143v182.857h73.143v-182.857zM365.714 73.143h-73.143v182.857h73.143v-182.857z" />
<glyph unicode="&#xe614;" glyph-name="extra" d="M146.286 512.008v-73.143h-146.286v-36.572h438.857v36.572h-146.286v73.143h-146.286zM182.857 475.436h73.143v-36.571h-73.143v36.571zM0 365.721v-365.714h438.857v365.714h-438.857zM329.143 146.293h-73.143v-73.143h-73.143v73.143h-73.143v73.143h73.143v73.143h73.143v-73.143h73.143v-73.143z" />
<glyph unicode="&#xe615;" glyph-name="form" d="M73.143 475.428v-438.857h365.714v256h-146.286v182.857h-219.429zM329.143 475.428v-146.286h109.714l-109.714 146.286zM109.715 219.428h36.572v-36.572h-36.572v36.572zM182.857 219.428h219.429v-36.572h-219.429v36.572zM109.715 146.286h36.572v-36.572h-36.572v36.572zM182.857 146.286h219.429v-36.572h-219.429v36.572z" />
<glyph unicode="&#xe616;" glyph-name="grid" d="M0 438.857h475.428v-73.143h-475.428v73.143zM256 292.572h219.428v-73.143h-219.429v73.143zM0 146.286h475.428v-73.143h-475.428v73.143zM0 292.572h219.429v-73.143h-219.429v73.143z" />
<glyph unicode="&#xe617;" glyph-name="home" d="M256 475.428l-256-256h73.143v-182.857h146.286v182.857h73.143v-182.857h146.286v182.857h73.143zM402.286 402.286h36.572v73.143h-73.143v-36.572h36.572z" />
<glyph unicode="&#xe618;" glyph-name="image" d="M0 512v-512h512v512h-512zM438.857 146.286h-365.714v292.572h365.714v-292.572zM402.286 365.714c0-20.198-16.373-36.572-36.572-36.572s-36.572 16.373-36.572 36.572c0 20.198 16.373 36.572 36.572 36.572s36.572-16.373 36.572-36.572zM329.143 182.857h73.143l-36.572 73.143-61.879-30.939-84.407 140.654-109.715-182.857h109.715z" />
<glyph unicode="&#xe619;" glyph-name="inbox" d="M219.429 512v-146.286h-73.143l109.714-109.714 109.714 109.714h-73.143v146.286h-73.143zM73.143 475.428l-73.143-256v-219.428h512v219.428l-73.143 256h-73.143v-36.572h43.428l60.572-219.428h-140.572v-73.143h-146.286v73.143h-132.571l59.428 219.428h36.572v36.572h-73.143z" />
<glyph unicode="&#xe61a;" glyph-name="indent" d="M219.429 438.857h292.572v-73.143h-292.572v73.143zM219.429 146.286h292.572v-73.143h-292.572v73.143zM292.572 292.572h219.428v-73.143h-219.428v73.143zM73.143 512v-219.428h-73.143v-73.143h73.143v-219.428h73.143v512z" />
<glyph unicode="&#xe61b;" glyph-name="italic" d="M290.633 99.84c-46.007-50.541-94.573-71.277-114.029-71.277-18.798 0-33.060 12.947-19.456 69.961l33.683 145.152c3.219 16.201 3.876 22.675 0 22.675-5.851 0-23.991-11.008-39.534-22.675l-8.996 18.139c46.629 43.411 94.573 68.681 117.943 68.681 18.798 0 22.016-25.271 12.947-64.147l-36.937-150.309c-4.499-18.798-2.56-25.235 1.939-25.235 5.851 0 22.711 9.070 41.508 25.892l10.935-16.86zM332.58 420.352c0-30.281-24.576-54.857-54.857-54.857s-54.857 24.576-54.857 54.857 24.576 54.857 54.857 54.857 54.857-24.576 54.857-54.857z" />
<glyph unicode="&#xe61c;" glyph-name="signals" d="M319.269 61.733c0-34.094-27.639-61.733-61.733-61.733s-61.733 27.639-61.733 61.733c0 34.094 27.638 61.733 61.733 61.733s61.733-27.639 61.733-61.733zM257.536 286.866c-65.572 0-129.316-45.202-145.115-102.912-5.084-18.505 6.656-37.413 26.221-42.204 19.529-4.864 39.497 6.291 44.581 24.832 7.424 27.136 42.167 50.981 74.313 50.981 31.086 0 66.56-24.503 74.459-51.493 4.498-15.433 19.236-25.417 35.219-25.417 3.255 0 6.62 0.402 9.837 1.28 19.456 5.12 30.866 24.247 25.454 42.679-16.823 57.308-80.457 102.254-144.969 102.254zM512.256 276.077c-27.428 98.669-136.923 173.056-254.72 173.056-121.564 0-228.718-73.033-254.829-173.678-5.083-19.566 6.656-39.497 26.221-44.581 19.639-5.12 39.533 6.656 44.58 26.221 17.591 67.803 96.695 118.894 184.028 118.894 84.663 0 165.596-52.517 184.247-119.515 4.498-16.165 19.2-26.771 35.219-26.771 3.219 0 6.583 0.439 9.801 1.353 19.456 5.449 30.793 25.563 25.454 45.019z" />
<glyph unicode="&#xe61d;" glyph-name="laptop" d="M0 182.857v-73.143h512v73.143h-182.857v-36.572h-146.286v36.572h-182.857zM73.143 438.857v-256h365.714v256h-365.714zM109.715 402.286h292.572v-182.857h-292.572v182.857z" />
<glyph unicode="&#xe61e;" glyph-name="layouts" d="M0 438.857v-365.714h36.572v329.143h402.286v36.572h-438.857zM73.143 365.714v-329.143h438.857v329.143h-438.857zM109.715 292.572h146.286v-182.857h-146.286v182.857zM329.143 292.572h146.286v-36.572h-146.286v36.572zM329.143 219.428h146.286v-36.572h-146.286v36.572zM329.143 146.286h146.286v-36.572h-146.286v36.572z" />
<glyph unicode="&#xe61f;" glyph-name="layouts2" d="M36.572 475.428v-146.286h438.857v146.286h-438.857zM36.572 292.572v-256h256v256h-256zM329.143 292.572v-256h146.286v256h-146.286z" />
<glyph unicode="&#xe620;" glyph-name="layouts3" d="M0 475.428v-402.286h512v402.286h-512zM36.572 438.857h438.857v-329.143h-438.857v329.143zM73.143 365.714h146.286v-182.857h-146.286v182.857zM292.572 365.714h146.286v-36.572h-146.286v36.572zM292.572 292.572h146.286v-36.572h-146.286v36.572zM292.572 219.428h146.286v-36.572h-146.286v36.572z" />
<glyph unicode="&#xe621;" glyph-name="layouts4" d="M36.572 438.857v-146.285h182.857v146.285h-182.857zM292.572 438.857v-146.285h182.857v146.285h-182.857zM36.572 256v-36.572h182.857v36.572h-182.857zM292.572 256v-36.572h182.857v36.572h-182.857zM36.572 182.857v-36.572h182.857v36.572h-182.857zM292.572 182.857v-36.572h182.857v36.572h-182.857zM36.572 109.714v-36.572h182.857v36.572h-182.857zM292.572 109.714v-36.572h182.857v36.572h-182.857z" />
<glyph unicode="&#xe622;" glyph-name="leftalign" d="M36.572 438.857h438.857v-73.143h-438.857v73.143zM36.572 146.286h438.857v-73.143h-438.857v73.143zM36.572 292.572h256v-73.143h-256v73.143z" />
<glyph unicode="&#xe623;" glyph-name="like" d="M347.428 512c-46.483 0-87.296-24.942-109.714-62.135-22.418 37.193-63.232 62.135-109.715 62.135-70.583 0-128-57.417-128-128 0-176.64 69.778-269.421 233.289-310.308l4.425-1.097 4.425 1.097c148.26 37.047 233.289 150.163 233.289 310.308 0 70.583-57.417 128-128 128zM237.714 110.3c-144.677 37.413-201.143 114.505-201.143 273.7 0 50.395 41.033 91.428 91.428 91.428s109.715-41.033 109.715-91.428c0 50.395 59.282 91.428 109.714 91.428s91.428-41.033 91.428-91.428c0-142.482-71.387-239.506-201.143-273.7z" />
<glyph unicode="&#xe624;" glyph-name="like1" d="M365.714 438.857c-60.563 0-109.714-49.115-109.714-109.714 0 60.599-49.115 109.714-109.714 109.714s-109.715-49.115-109.715-109.714c0-180.005 73.143-256 219.428-292.572 146.286 36.572 219.428 146.286 219.428 292.572 0 60.599-49.152 109.714-109.714 109.714z" />
<glyph unicode="&#xe625;" glyph-name="lock" d="M219.429 512c-40.521 0-73.143-32.621-73.143-73.143v-146.285h-73.143v-292.572h329.143v292.572h-73.143v146.286c0 40.521-32.621 73.143-73.143 73.143h-36.571zM219.429 475.428h36.571c20.261 0 36.572-16.31 36.572-36.572v-146.285h-109.714v146.285c0 20.261 16.31 36.572 36.572 36.572zM219.429 219.428h36.571v-73.143h-36.572v73.143z" />
<glyph unicode="&#xe626;" glyph-name="mail" d="M0 475.436v-74.276l256-160 256 160v74.276h-512zM0 357.712v-247.991h512v247.991l-256-160-9.143 5.705-246.857 154.295z" />
<glyph unicode="&#xe627;" glyph-name="map" d="M256 512c-100.989 0-182.857-81.868-182.857-182.857 0-6.312 0.519-12.139 1.143-18.286 0.29-4.007 0.355-3.362 1.143-9.143 0.647-4.238 1.353-8.435 2.285-12.572 10.093-56.703 45.962-167.676 178.286-289.143 132.323 121.468 168.193 232.44 178.286 289.143 4.344 24.405 4.572 40 4.572 40 0 100.989-81.868 182.857-182.857 182.857zM256 438.857c60.594 0 109.714-49.121 109.714-109.714s-49.121-109.714-109.714-109.714c-60.594 0-109.714 49.121-109.714 109.714s49.121 109.714 109.714 109.714z" />
<glyph unicode="&#xe628;" glyph-name="arrow_left_line_alt" d="M128 237.714c0 5.413 2.34 10.569 6.583 14.043l219.429 182.857c7.753 6.473 19.31 5.412 25.747-2.341 6.473-7.79 5.413-19.31-2.341-25.747l-202.569-168.813 202.569-168.814c7.789-6.473 8.74-17.957 2.341-25.747-6.473-7.753-17.993-8.777-25.783-2.267l-219.429 182.857c-4.206 3.401-6.547 8.558-6.547 13.971z" />
<glyph unicode="&#xe629;" glyph-name="arrow_left" d="M145.92 232.009c0-8.046 2.925-16.055 8.777-22.382l118.857-128c12.361-13.312 33.207-14.116 46.519-1.755 13.385 12.361 14.080 33.207 1.755 46.519l-98.048 105.618 98.084 105.618c12.288 13.276 11.556 34.157-1.755 46.483-13.312 12.397-34.157 11.593-46.519-1.719l-118.857-128c-5.888-6.327-8.814-14.373-8.814-22.382z" />
<glyph unicode="&#xe62a;" glyph-name="arrow_lright_line_alt" d="M377.417 223.707l-219.392-182.857c-7.79-6.51-19.31-5.449-25.783 2.267-6.4 7.789-5.412 19.273 2.34 25.747l202.569 168.851-202.532 168.813c-7.79 6.437-8.85 17.957-2.377 25.747 6.436 7.753 17.993 8.814 25.746 2.341l219.428-182.857c4.243-3.474 6.583-8.631 6.583-14.043s-2.341-10.569-6.583-14.007z" />
<glyph unicode="&#xe62b;" glyph-name="arrow_maximize_line" d="M269.971 359.168l182.857-219.392c6.51-7.789 5.449-19.31-2.267-25.783-7.789-6.4-19.273-5.413-25.747 2.341l-168.814 202.569-168.814-202.533c-6.436-7.789-17.957-8.813-25.746-2.341-7.753 6.437-8.813 17.993-2.304 25.747l182.857 219.429c3.401 4.205 8.558 6.546 14.007 6.546s10.569-2.34 13.97-6.583z" />
<glyph unicode="&#xe62c;" glyph-name="arrow_maximize" d="M238.299 360.923c-8.046 0-16.091-2.925-22.381-8.777l-128-118.857c-13.349-12.397-14.117-33.207-1.755-46.555 12.361-13.385 33.207-14.043 46.519-1.719l105.619 98.048 105.618-98.084c13.276-12.288 34.158-11.556 46.483 1.755 12.397 13.312 11.593 34.157-1.719 46.519l-128 118.857c-6.291 5.888-14.373 8.813-22.381 8.813z" />
<glyph unicode="&#xe62d;" glyph-name="menu_lv" d="M0 512v-73.143h73.143v73.143h-73.143zM146.286 512v-73.143h365.714v73.143h-365.714zM0 365.714v-73.143h73.143v73.143h-73.143zM146.286 365.714v-73.143h365.714v73.143h-365.714zM146.286 219.428v-73.143h365.714v73.143h-365.714zM146.286 73.143v-73.143h365.714v73.143h-365.714z" />
<glyph unicode="&#xe62f;" glyph-name="arrow_minimize_line" d="M256 146.286c-5.412 0-10.569 2.377-14.043 6.583l-182.857 219.428c-6.473 7.753-5.413 19.31 2.34 25.747 7.789 6.473 19.31 5.412 25.747-2.341l168.813-202.569 168.813 202.569c6.473 7.753 17.993 8.74 25.747 2.34 7.753-6.473 8.777-17.993 2.304-25.783l-182.857-219.429c-3.438-4.169-8.594-6.546-14.007-6.546z" />
<glyph unicode="&#xe630;" glyph-name="arrow_minimize" d="M238.299 176.201c-8.046 0-16.091 2.925-22.381 8.777l-128 118.857c-13.349 12.397-14.117 33.243-1.755 46.555 12.361 13.385 33.207 14.080 46.519 1.719l105.619-98.048 105.618 98.048c13.276 12.325 34.158 11.593 46.483-1.719 12.397-13.312 11.593-34.157-1.719-46.519l-128-118.857c-6.291-5.888-14.373-8.813-22.381-8.813z" />
<glyph unicode="&#xe631;" glyph-name="arrow_right" d="M330.642 232.009c0-8.046-2.925-16.055-8.777-22.382l-118.857-128c-12.361-13.312-33.207-14.116-46.519-1.755-13.385 12.361-14.080 33.207-1.756 46.519l98.084 105.618-98.121 105.582c-12.251 13.312-11.556 34.158 1.756 46.519 13.349 12.398 34.157 11.593 46.519-1.719l118.857-128c5.888-6.327 8.813-14.373 8.813-22.382z" />
<glyph unicode="&#xe632;" glyph-name="arrow_up" d="M438.857 146.286l-182.857 182.857-182.857-182.857z" />
<glyph unicode="&#xe633;" glyph-name="fullscreen_restore" d="M219.429 219.428v-182.857l-182.857 182.857zM292.572 292.572v182.893l182.857-182.893z" />
<glyph unicode="&#xe634;" glyph-name="fullscreen" d="M109.715 109.714v182.857l182.857-182.857zM402.286 402.286v-182.821l-182.857 182.82z" />
<glyph unicode="&#xe635;" glyph-name="minus" d="M109.715 292.572h292.572v-73.143h-292.572v73.143z" />
<glyph unicode="&#xe636;" glyph-name="movie" d="M438.857 438.857h-365.714c-40.375 0-73.143-32.768-73.143-73.143v-219.429c0-40.375 32.768-73.143 73.143-73.143h365.714c40.375 0 73.143 32.768 73.143 73.143v219.428c0 40.375-32.768 73.143-73.143 73.143zM182.857 146.286v219.429l182.857-109.715-182.857-109.714z" />
<glyph unicode="&#xe637;" glyph-name="ordered_list" d="M219.429 475.428h292.572v-73.143h-292.572v73.143zM219.429 365.714h256v-73.143h-256v73.143zM219.429 219.428h292.572v-73.143h-292.572v73.143zM219.429 109.714h219.429v-73.143h-219.429v73.143zM9.801 81.957c5.668 10.716 16.749 20.48 33.243 29.257l24.576 12.983c11.008 5.888 18.725 10.899 23.15 15.067 6.985 6.51 10.496 13.933 10.496 22.308 0 9.837-3.181 17.555-9.582 23.369-6.4 5.741-14.957 8.631-25.6 8.631-15.799 0-26.733-5.486-32.768-16.493-3.255-5.851-5.047-14.043-5.376-24.466h-23.442c0.22 14.665 3.181 26.587 8.813 35.803 9.984 16.311 27.611 24.43 52.883 24.43 20.992 0 36.352-5.229 46.007-15.616 9.692-10.423 14.519-22.016 14.519-34.743 0-13.459-5.156-24.978-15.469-34.487-5.998-5.559-16.713-12.288-32.147-20.224l-17.517-8.887c-8.375-4.243-14.957-8.301-19.712-12.105-8.557-6.839-13.934-14.373-16.128-22.637h100.132v-19.968h-125.879c0.841 14.483 4.096 27.063 9.801 37.779zM0 422.839v16.311c18.468 1.5 31.341 4.023 38.656 7.534 7.277 3.511 12.727 11.813 16.311 24.942h20.188v-168.887h-27.282v120.101h-47.872z" />
<glyph unicode="&#xe638;" glyph-name="outdent" d="M0 438.857h292.572v-73.143h-292.572v73.143zM0 146.286h292.572v-73.143h-292.572v73.143zM0 292.572h219.429v-73.143h-219.429v73.143zM438.857 292.572v219.428h-73.143v-512h73.143v219.428h73.143v73.143z" />
<glyph unicode="&#xe639;" glyph-name="phone" d="M109.715 512v-512h292.572v512h-292.572zM146.286 475.428h219.429v-365.714h-219.429v365.714zM219.429 73.143h73.143v-36.572h-73.143v36.572z" />
<glyph unicode="&#xe63a;" glyph-name="minus_circle" d="M256 512c-141.385 0-256-114.615-256-256s114.615-256 256-256 256 114.615 256 256-114.615 256-256 256zM402.286 219.428h-292.572v73.143h292.572v-73.143z" />
<glyph unicode="&#xe63b;" glyph-name="plus" d="M219.429 402.286v-109.714h-109.715v-73.143h109.715v-109.714h73.143v109.714h109.714v73.143h-109.714v109.714h-73.143z" />
<glyph unicode="&#xe63c;" glyph-name="power" d="M252.269 256h7.424c18.176 0 32.877 14.702 32.877 32.841v153.746c0 18.139-14.702 32.841-32.841 32.841h-7.46c-18.139 0-32.841-14.702-32.841-32.841v-153.709c0-18.176 14.702-32.878 32.841-32.878zM365.714 409.235v-93.989c22.491-25.709 36.572-58.99 36.572-95.817 0-80.786-65.5-146.286-146.286-146.286s-146.286 65.5-146.286 146.286c0 36.827 14.080 70.108 36.572 95.817v93.988c-65.536-37.925-109.715-108.653-109.715-189.805 0-121.161 98.267-219.428 219.428-219.428s219.428 98.267 219.428 219.428c0 81.152-44.178 151.881-109.714 189.805z" />
<glyph unicode="&#xe63d;" glyph-name="printer" d="M109.715 512v-182.857h292.572v182.857h-292.572zM146.286 475.428h219.429v-36.572h-219.429v36.572zM146.286 402.286h219.429v-36.572h-219.429v36.572zM0 292.572v-256h73.143v73.143h365.714v-73.143h73.143v256h-512zM365.714 219.428h36.572v-36.572h-36.572v36.572zM438.857 219.428h36.572v-36.572h-36.572v36.572zM109.715 73.143v-73.143h292.572v73.143h-292.572z" />
<glyph unicode="&#xe63e;" glyph-name="refresh" d="M219.429 438.857c-100.989 0-182.857-81.868-182.857-182.857s81.868-182.857 182.857-182.857c88.365 0 162.378 62.961 179.429 146.286h-52.572c-16.094-55.087-66.616-96-126.857-96-73.141 0-132.571 59.431-132.571 132.571s59.431 132.572 132.571 132.572c45.739 0 85.996-23.961 109.715-59.428l-73.143-73.143h182.857v182.857l-73.143-73.143c-33.442 44.537-86.43 73.143-146.286 73.143z" />
<glyph unicode="&#xe63f;" glyph-name="resize" d="M0 512h73.143v-512h-73.143v512zM0 73.143h512v-73.143h-512v73.143zM0 512h512v-73.143h-512v73.143zM438.857 512h73.143v-512h-73.143v512zM292.572 219.428h146.286v-146.286h-146.286v146.286zM146.286 365.714h36.572v-292.572h-36.572v292.572zM146.286 365.714h292.572v-36.572h-292.572v36.572z" />
<glyph unicode="&#xe640;" glyph-name="right_align" d="M36.572 438.857h438.857v-73.143h-438.857v73.143zM36.572 146.286h438.857v-73.143h-438.857v73.143zM219.429 292.572h256v-73.143h-256v73.143z" />
<glyph unicode="&#xe641;" glyph-name="save" d="M365.714 475.428v-182.857h-292.572v182.857h-73.143v-475.428h512v329.143c0 80.786-65.5 146.286-146.286 146.286zM109.715 438.857h73.143v-109.714h-73.143v109.714z" />
<glyph unicode="&#xe642;" glyph-name="search" d="M219.429 512c-121.187 0-219.429-98.241-219.429-219.428s98.242-219.429 219.429-219.429c121.187 0 219.429 98.242 219.429 219.429s-98.242 219.428-219.429 219.428zM219.429 475.428c100.989 0 182.857-81.868 182.857-182.857s-81.868-182.857-182.857-182.857c-100.989 0-182.857 81.868-182.857 182.857s81.868 182.857 182.857 182.857zM373.801 85.106l51.916 51.523 77.284-77.874-51.916-51.523-77.284 77.874z" />
<glyph unicode="&#xe643;" glyph-name="sent" d="M237.714 512l-128-109.714h73.143v-146.286h109.715v146.286h73.143l-128 109.714zM0 292.572v-256h475.428v256h-73.143v-109.714h-109.714v-73.143h-109.714v73.143h-109.715v109.714h-73.143z" />
<glyph unicode="&#xe644;" glyph-name="settings_small_1" d="M475.428 219.428v73.143h-52.407c-4.498 20.077-12.435 38.803-23.26 55.515l37.267 37.23-51.748 51.712-37.559-37.596c-16.676 10.569-35.182 18.505-55.149 22.784v53.212h-73.143v-53.212c-19.968-4.279-38.473-12.215-55.15-22.784l-37.596 37.596-51.712-51.712 37.23-37.267c-10.825-16.676-18.725-35.401-23.223-55.479h-52.407v-73.143h51.675c4.243-20.443 12.325-39.315 23.040-56.393l-36.316-36.315 51.712-51.748 35.584 35.62c17.152-11.337 36.425-19.639 57.125-24.173v-49.847h73.143v49.81c20.736 4.535 40.009 12.873 57.125 24.173l35.584-35.62 51.748 51.748-36.315 36.315c10.752 17.115 18.834 35.986 23.077 56.43h51.675zM365.714 256c0-60.563-49.152-109.714-109.714-109.714-60.599 0-109.714 49.152-109.714 109.714 0 60.599 49.115 109.714 109.714 109.714 60.563 0 109.714-49.115 109.714-109.714z" />
<glyph unicode="&#xe645;" glyph-name="settings_small" d="M473.015 224.841c1.389 10.24 2.413 20.553 2.413 31.159s-1.024 20.919-2.413 31.159l-49.591 11.191c-4.132 16.42-10.606 31.89-19.091 46.080l27.173 42.971c-12.581 16.713-27.356 31.488-44.068 44.032l-43.008-27.136c-14.226 8.448-29.696 14.921-46.080 19.091l-11.191 49.591c-10.24 1.463-20.553 2.451-31.159 2.451s-20.919-0.988-31.159-2.451l-11.191-49.591c-16.421-4.169-31.891-10.606-46.080-19.091l-42.971 27.136c-16.677-12.544-31.488-27.356-44.032-44.032l27.136-42.971c-8.484-14.19-14.921-29.696-19.091-46.080l-49.591-11.191c-1.463-10.24-2.45-20.553-2.45-31.159s0.987-20.919 2.45-31.159l49.591-11.228c4.169-16.384 10.642-31.853 19.090-46.080l-27.136-42.971c12.544-16.713 27.356-31.488 44.032-44.068l42.972 27.173c14.19-8.485 29.66-14.957 46.080-19.091l11.191-49.591c10.24-1.389 20.553-2.413 31.159-2.413s20.919 1.024 31.159 2.413l11.228 49.627c16.384 4.096 31.853 10.569 46.116 19.053l42.935-27.173c16.713 12.58 31.488 27.356 44.069 44.069l-27.173 42.935c8.485 14.263 14.957 29.696 19.053 46.117l49.627 11.228zM256 167.168c-49.042 0-88.796 39.753-88.796 88.832 0 49.043 39.753 88.796 88.796 88.796 49.079 0 88.832-39.753 88.832-88.796 0-49.079-39.753-88.832-88.832-88.832z" />
<glyph unicode="&#xe646;" glyph-name="settings" d="M433.957 382.245l28.928 28.928-51.748 51.712-29.111-29.111c-26.221 18.541-56.613 31.341-89.454 36.937v41.289h-73.143v-41.289c-32.841-5.595-63.232-18.432-89.453-36.974l-29.148 29.148-51.712-51.712 28.928-28.928c-18.871-26.221-32.109-56.686-37.925-89.673h-40.119v-73.143h39.68c5.449-33.353 18.359-64.256 37.193-90.844l-27.721-27.721 51.712-51.748 27.538 27.538c26.588-19.127 57.527-32.439 91.063-38.144v-38.51h73.143v38.51c33.5 5.705 64.476 19.017 91.026 38.144l27.538-27.538 51.748 51.748-27.757 27.721c18.761 26.587 31.707 57.49 37.156 90.844h39.68v73.143h-40.119c-5.815 32.987-19.017 63.452-37.925 89.673zM256 108.325c-80.457 0-146.286 65.829-146.286 146.286s65.829 146.286 146.286 146.286 146.286-65.829 146.286-146.286-65.829-146.286-146.286-146.286z" />
<glyph unicode="&#xe647;" glyph-name="shopping_cart" d="M0 512v-36.572h73.143v-365.714h402.285v36.572h-365.714v73.143h402.286v219.428h-36.572v-182.857h-365.714v256h-109.715zM146.286 438.857v-146.285h73.143v146.285h-73.143zM256 438.857v-146.285h73.143v146.285h-73.143zM365.714 438.857v-146.285h73.143v146.285h-73.143zM146.286 73.143c-20.198 0-36.572-16.373-36.572-36.572s16.373-36.571 36.572-36.571c20.198 0 36.572 16.373 36.572 36.572s-16.374 36.572-36.572 36.572zM402.286 73.143c-20.198 0-36.572-16.373-36.572-36.572s16.373-36.571 36.572-36.571c20.198 0 36.572 16.373 36.572 36.572s-16.373 36.572-36.572 36.572z" />
<glyph unicode="&#xe648;" glyph-name="social" d="M438.857 512h-365.714c-40.521 0-73.143-32.621-73.143-73.143v-292.572c0-40.485 32.621-73.143 73.143-73.143h292.572v-73.143l73.143 73.143c40.485 0 73.143 32.659 73.143 73.143v292.572c0 40.521-32.659 73.143-73.143 73.143zM182.857 256h-73.143v73.143h73.143v-73.143zM292.572 256h-73.143v73.143h73.143v-73.143zM402.286 256h-73.143v73.143h73.143v-73.143z" />
<glyph unicode="&#xe649;" glyph-name="spam" d="M0 146.286v-146.286h512v146.286h-219.428v-36.572h-73.143v36.572h-219.429zM0 219.428h512v-36.572h-512v36.572zM0 292.572h512v-36.572h-512v36.572zM219.429 512v-73.143h-73.143l109.714-109.714 109.714 109.714h-73.143v73.143h-73.143z" />
<glyph unicode="&#xe64a;" glyph-name="suitcase" d="M146.286 475.428v-109.714h36.572v73.143h146.286v-73.143h36.572v109.714h-219.429zM0 329.143v-109.715h146.286v-36.572h-146.286v-182.857h512v182.857h-146.286v36.572h146.286v109.714h-512zM182.857 219.428h146.286v-36.572h-36.572v-36.572h-73.143v36.572h-36.571v36.572z" />
<glyph unicode="&#xe64b;" glyph-name="tables" d="M0 475.428v-402.286h475.428v402.286h-475.428zM36.572 365.714h109.715v-109.714h-109.715v109.714zM182.857 365.714h109.715v-109.714h-109.714v109.714zM329.143 365.714h109.714v-109.714h-109.714v109.714zM36.572 219.428h109.715v-109.714h-109.715v109.714zM182.857 219.428h109.715v-109.714h-109.714v109.714zM329.143 219.428h109.714v-109.714h-109.714v109.714z" />
<glyph unicode="&#xe64c;" glyph-name="tablet" d="M0 438.857v-402.285h512v402.286h-512zM36.572 402.286h365.714v-329.143h-365.714v329.143zM438.857 256h36.572v-36.572h-36.572v36.572z" />
<glyph unicode="&#xe64d;" glyph-name="telephone" d="M0 475.428v-438.857h146.286v438.857h-146.286zM182.857 475.428v-438.857h329.143v438.857h-329.143zM219.429 402.286h256v-109.714h-256v109.714zM219.429 256h36.571v-36.572h-36.572v36.572zM292.572 256h36.572v-36.572h-36.572v36.572zM365.714 256h36.572v-36.572h-36.572v36.572zM438.857 256h36.572v-36.572h-36.572v36.572zM219.429 182.857h36.571v-36.572h-36.572v36.572zM292.572 182.857h36.572v-36.572h-36.572v36.572zM365.714 182.857h36.572v-36.572h-36.572v36.572zM438.857 182.857h36.572v-36.572h-36.572v36.572zM292.572 109.714h36.572v-36.572h-36.572v36.572zM365.714 109.714h36.572v-36.572h-36.572v36.572z" />
<glyph unicode="&#xe64e;" glyph-name="text_style" d="M146.286 438.857v-73.143h109.714v-219.429h73.143v219.428h109.714v73.143zM73.143 73.143v365.714h-73.143v-438.857h512v73.143z" />
<glyph unicode="&#xe64f;" glyph-name="trash_line" d="M182.857 438.857v-36.571h-146.286v-36.572h402.285v36.572h-146.286v36.571h-109.714zM73.143 329.143v-292.572h-36.572v-36.572h402.286v36.572h-36.572v292.572h-329.143zM109.715 292.572h256v-256h-256v256zM146.286 256v-182.857h36.572v182.857h-36.572zM219.429 256v-182.857h36.571v182.857h-36.572zM292.572 256v-182.857h36.572v182.857h-36.572z" />
<glyph unicode="&#xe650;" glyph-name="trash" d="M146.286 475.428v-73.143h-109.715v-36.572h402.286v36.572h-109.714v73.143h-182.857zM182.857 438.857h109.715v-36.571h-109.714v36.571zM73.143 329.143v-329.143h329.143v329.143h-329.143zM146.286 256h36.572v-182.857h-36.572v182.857zM219.429 256h36.571v-182.857h-36.572v182.857zM292.572 256h36.572v-182.857h-36.572v182.857z" />
<glyph unicode="&#xe651;" glyph-name="ui" d="M0 475.428v-438.857h512v438.857h-512zM182.857 438.857h73.143v-73.143h-73.143v73.143zM292.572 438.857h73.143v-73.143h-73.143v73.143zM402.286 438.857h73.143v-73.143h-73.143v73.143zM36.572 329.143h438.857v-256h-438.857v256z" />
<glyph unicode="&#xe652;" glyph-name="underline" d="M0 109.714h475.428v-73.143h-475.428v73.143zM329.143 475.428v-182.857c0-50.505-40.923-73.143-91.428-73.143s-91.428 22.637-91.428 73.143v182.857h-73.143v-182.857c0-90.844 73.728-146.286 164.571-146.286s164.571 55.442 164.571 146.286v182.857h-73.143z" />
<glyph unicode="&#xe653;" glyph-name="unordered_list" d="M109.715 438.857h365.714v-73.143h-365.714v73.143zM109.715 292.572h292.572v-73.143h-292.572v73.143zM109.715 146.286h365.714v-73.143h-365.714v73.143zM0 438.857h73.143v-73.143h-73.143v73.143zM0 292.572h73.143v-73.143h-73.143v73.143zM0 146.286h73.143v-73.143h-73.143v73.143z" />
<glyph unicode="&#xe654;" glyph-name="video" d="M0 512v-512h475.428v512h-475.428zM36.572 475.428h36.572v-36.572h-36.572v36.572zM109.715 475.428h36.572v-36.572h-36.572v36.572zM182.857 475.428h36.571v-36.572h-36.572v36.572zM256 475.428h36.572v-36.572h-36.572v36.572zM329.143 475.428h36.572v-36.572h-36.572v36.572zM402.286 475.428h36.572v-36.572h-36.572v36.572zM36.572 402.286h402.286v-292.572h-402.286v292.572zM182.857 329.143v-146.286l146.286 73.143-146.286 73.143zM36.572 73.143h36.572v-36.572h-36.572v36.572zM109.715 73.143h36.572v-36.572h-36.572v36.572zM182.857 73.143h36.571v-36.572h-36.572v36.572zM256 73.143h36.572v-36.572h-36.572v36.572zM329.143 73.143h36.572v-36.572h-36.572v36.572zM402.286 73.143h36.572v-36.572h-36.572v36.572z" />
<glyph unicode="&#xe655;" glyph-name="more" d="M182.857 237.714c0-30.297-24.56-54.857-54.857-54.857s-54.857 24.56-54.857 54.857c0 30.297 24.561 54.857 54.857 54.857s54.857-24.56 54.857-54.857zM402.286 237.714c0-30.297-24.56-54.857-54.857-54.857s-54.857 24.56-54.857 54.857c0 30.297 24.56 54.857 54.857 54.857s54.857-24.56 54.857-54.857z" />
<glyph unicode="&#xe656;" glyph-name="plus_circle" d="M256 512c-141.385 0-256-114.615-256-256s114.615-256 256-256 256 114.615 256 256-114.615 256-256 256zM402.286 219.428h-109.714v-109.714h-73.143v109.714h-109.715v73.143h109.715v109.714h73.143v-109.714h109.714v-73.143z" />
<glyph unicode="&#xe657;" glyph-name="crop" d="M73.143 475.428h73.143v-36.572h-73.143v36.572zM146.286 146.286v146.286h-73.143v-219.428h402.285v73.143zM329.143 182.857h73.143v219.429h-402.286v-73.143h329.143zM329.143 36.572h73.143v-36.572h-73.143v36.572z" />
<glyph unicode="&#xe658;" glyph-name="folder_alt" d="M36.572 402.286v36.571c0 20.188 16.384 36.572 36.572 36.572h146.286c20.188 0 36.571-16.384 36.571-36.572v-36.571zM512 73.143c0-20.224-16.348-36.572-36.572-36.572h-438.857c-20.188 0-36.572 16.348-36.572 36.572v256c0 20.188 16.384 36.572 36.572 36.572h438.857c20.224 0 36.572-16.384 36.572-36.572v-256z" />
<glyph unicode="&#xe659;" glyph-name="folder" d="M438.857 402.286h-365.714c-40.375 0-73.143-32.768-73.143-73.143v-182.857c0-40.375 32.768-73.143 73.143-73.143h365.714c40.375 0 73.143 32.768 73.143 73.143v182.857c0 40.375-32.768 73.143-73.143 73.143zM292.572 475.428h-182.857c-20.188 0-36.572-16.384-36.572-36.572h256c0 20.188-16.348 36.572-36.572 36.572z" />
<glyph unicode="&#xe65a;" glyph-name="theme" d="M256 512c-141.385 0-256-114.615-256-256s114.615-256 256-256 256 114.615 256 256-114.615 256-256 256zM256 73.143c-101.010 0-182.857 81.847-182.857 182.857s81.847 182.857 182.857 182.857 182.857-81.847 182.857-182.857-81.847-182.857-182.857-182.857zM146.286 256c0-60.563 49.115-109.714 109.714-109.714v219.429c-60.599 0-109.714-49.115-109.714-109.715z" />
<glyph unicode="&#xe65b;" glyph-name="battery_empty" d="M493.714 329.143h-18.286v-109.715h18.286c10.094 0 18.286 8.192 18.286 18.286v73.143c0 10.094-8.192 18.286-18.286 18.286zM365.714 402.286h-292.572c-40.375 0-73.143-32.768-73.143-73.143v-109.714c0-40.375 32.768-73.143 73.143-73.143h292.572c40.375 0 73.143 32.768 73.143 73.143v109.714c0 40.375-32.768 73.143-73.143 73.143zM146.286 219.428h-36.572c-20.188 0-36.572 16.384-36.572 36.572v36.572c0 20.188 16.384 36.572 36.572 36.572h36.572v-109.714z" />
<glyph unicode="&#xe65c;" glyph-name="battery" d="M493.714 329.143h-18.286v-109.715h18.286c10.094 0 18.286 8.192 18.286 18.286v73.143c0 10.094-8.192 18.286-18.286 18.286zM365.714 402.286h-292.572c-40.375 0-73.143-32.768-73.143-73.143v-109.714c0-40.375 32.768-73.143 73.143-73.143h292.572c40.375 0 73.143 32.768 73.143 73.143v109.714c0 40.375-32.768 73.143-73.143 73.143zM329.143 219.428h-219.429c-20.188 0-36.572 16.384-36.572 36.572v36.572c0 20.188 16.384 36.572 36.572 36.572h219.429v-109.714z" />
<glyph unicode="&#xe65d;" glyph-name="note" d="M182.857 512h146.286v-73.143h-146.286v73.143zM438.857 475.428h-73.143v-73.143h-219.429v73.143h-73.143c-20.188 0-36.572-16.384-36.572-36.572v-402.285c0-20.224 16.384-36.572 36.572-36.572h365.714c20.224 0 36.572 16.348 36.572 36.572v402.286c0 20.188-16.348 36.572-36.572 36.572zM182.857 109.714h-36.571v36.572h36.572v-36.572zM182.857 182.857h-36.571v36.572h36.572v-36.572zM182.857 256h-36.571v36.572h36.572v-36.572zM365.714 109.714h-146.286v36.572h146.286v-36.572zM365.714 182.857h-146.286v36.572h146.286v-36.572zM365.714 256h-146.286v36.572h146.286v-36.572zM182.857 475.428h146.286v-36.572h-146.286v36.572z" />
<glyph unicode="&#xe65e;" glyph-name="server_hard" d="M438.857 146.286h-365.714c-20.188 0-36.572 16.348-36.572 36.572v-73.143c0-40.375 32.768-73.143 73.143-73.143h292.572c40.375 0 73.143 32.768 73.143 73.143v73.143c0-20.224-16.348-36.572-36.572-36.572zM402.286 73.143h-109.714v36.572h109.714v-36.572zM402.286 475.428h-292.572c-40.375 0-73.143-32.768-73.143-73.143v-182.857c0-20.224 16.384-36.572 36.572-36.572h365.714c20.224 0 36.572 16.348 36.572 36.572v182.857c0 40.375-32.768 73.143-73.143 73.143z" />
<glyph unicode="&#xe65f;" glyph-name="servers" d="M73.143 36.572v-36.572h365.714v146.286h-365.714v-109.714zM292.572 109.714h73.143v-36.572h-73.143v36.572zM219.429 109.714h36.571v-36.572h-36.572v36.572zM402.286 512h-292.572c-20.224 0-36.572-16.384-36.572-36.572v-109.714h365.714v109.714c0 20.188-16.348 36.572-36.572 36.572zM365.714 402.286h-36.572v36.571h36.572v-36.571zM73.143 182.857h365.714v146.286h-365.714v-146.286zM329.143 256h36.572v-36.572h-36.572v36.572zM256 256h36.572v-36.572h-36.572v36.572z" />
<glyph unicode="&#xe660;" glyph-name="menu_justify" d="M36.572 438.857h438.857v-73.143h-438.857v73.143zM36.572 146.286h438.857v-73.143h-438.857v73.143zM36.572 292.572h438.857v-73.143h-438.857v73.143z" />
<glyph unicode="&#xe662;" glyph-name="boxnet" d="M244.151 360.923c-38.803 0-74.679-12.325-104.119-33.171v146.286c0.036 20.992-16.969 37.961-37.924 37.961s-37.961-16.969-37.961-37.961v-279.552c-0.365-4.717 0.037-32.147 1.317-39.899 12.471-87.625 87.625-155.136 178.725-155.136 99.84 0 180.736 80.933 180.736 180.7-0.036 99.84-80.933 180.772-180.773 180.772zM244.151 76.068c-57.49 0-104.119 46.555-104.119 104.082s46.592 104.156 104.119 104.156c57.49 0 104.082-46.592 104.082-104.156 0-57.49-46.592-104.082-104.082-104.082z" />
<glyph unicode="&#xe900;" glyph-name="link" d="M277.984 201.984l-108.256-108.224-72.16 72.16 108.288 108.256-18.112 18.016c-9.92 9.952-26.048 9.952-36.096 0l-108.192-108.224c-9.952-9.984-9.952-26.080 0-36.096l108.192-108.224c9.984-9.92 26.176-9.92 36.096 0l108.224 108.224c9.952 9.984 9.952 26.080 0 36.096l-17.984 18.016zM476.288 364.32l-108.16 108.192c-9.984 9.984-26.144 9.984-36.064 0l-108.256-108.192c-9.984-9.952-9.984-26.080 0-36.032l18.016-18.048 108.256 108.224 72.096-72.16-108.192-108.224 18.080-18.048c9.92-9.984 26.048-9.984 36.064 0l108.16 108.256c10.016 9.92 10.016 26.080 0 36.032zM187.744 183.968c9.984-9.984 26.144-9.984 36.064 0l108.256 108.224c9.92 9.952 9.92 26.080 0 36.096-9.984 9.952-26.144 9.952-36.096 0l-108.256-108.256c-9.856-10.016-9.856-26.176 0.032-36.064z" />
<glyph unicode="&#xe901;" glyph-name="menu" d="M480 416c0-17.696-14.336-32-32-32h-384c-17.664 0-32 14.304-32 32v0c0 17.696 14.336 32 32 32h384c17.664 0 32-14.304 32-32v0zM480 256c0-17.696-14.336-32-32-32h-384c-17.664 0-32 14.304-32 32v0c0 17.696 14.336 32 32 32h384c17.664 0 32-14.304 32-32v0zM480 96c0-17.696-14.336-32-32-32h-384c-17.664 0-32 14.304-32 32v0c0 17.696 14.336 32 32 32h384c17.664 0 32-14.304 32-32v0z" />
<glyph unicode="&#xe902;" glyph-name="side_menu" d="M64 384h160c17.696 0 32 14.336 32 32s-14.304 32-32 32h-160c-17.696 0-32-14.336-32-32s14.304-32 32-32zM64 224h256c17.696 0 32 14.304 32 32 0 17.664-14.304 32-32 32h-256c-17.696 0-32-14.336-32-32 0-17.696 14.304-32 32-32zM480 128h-416c-17.696 0-32-14.304-32-32s14.304-32 32-32h416c17.696 0 32 14.304 32 32s-14.304 32-32 32zM608 416h-96v96h-64v-96h-96v-64h96v-96h64v96h96z" />
<glyph unicode="&#xe903;" glyph-name="squares" d="M32 480h192v-192h-192v192zM32 224h192v-192h-192v192zM288 224h192v-192h-192v192zM288 480h192v-192h-192v192z" />
<glyph unicode="&#xe904;" glyph-name="world" d="M256 512c-141.376 0-256-114.624-256-256s114.624-256 256-256c141.376 0 256 114.624 256 256s-114.624 256-256 256zM213.504 319.616l10.496-18.208c0 0.032 0 0.096 0 0.096s2.816-7.136 2.048-15.616c-0.384-4.864-4.32-17.152-8.512-20.512l-3.264-9.376h-2.304c-6.24 0-17.28 8.896-21.216 15.232-1.44 1.92-10.080 11.872-14.72 15.072-4.48 3.072-8.352 7.808-9.824 9.184-1.472 1.44-7.68 4.992-12.32 6.368l-14.4 5.792-11.456 0.672-6.304 0.544 1.184 24.352-0.864 14.72-4.704 8.768-13.024 8.8-2.368 1.76-1.088 14.912 2.624 10.56 1.248 1.184c38.464 37.216 89.376 57.76 143.36 57.76 30.016 0 59.552-6.752 87.872-20l4.288-2.016-1.696-11.68-27.84-19.040-18.56-8.896-7.968-9.696-15.136 3.648h-35.008l-13.888-16.992-0.832-20.128-7.872-16.384 2.048-10.88zM421.984 154.016l-0.896-1.44c-11.072-17.952-22.464-35.264-40.096-49.728l-9.504-4.992-20.064-11.712-4.832-9.376-1.984-0.896c-3.2-1.504-6.752-2.912-10.048-4.224s-8.32-6.72-9.472-7.648h-5.088v19.072l-13.952 25.92c-2.176 6.816-7.36 16.928-8.96 19.424-1.536 2.56-9.728 8-15.52 10.432-1.696 0.672-3.936 1.152-5.728 1.632-4.608 1.184-10.016 2.56-13.728 7.136-3.008 3.424-3.328 8-3.488 11.648-0.128 2.976 2.944 5.504 1.6 7.552-5.44 8.448-4.224 16.448-4.224 20.736v38.4l-2.688 35.328 11.808 7.52 6.688 9.44 2.784 3.744 10.944-8.384 24.992-17.6h19.552l9.536-3.008 19.136-2.336 11.392-18.272 12.384-2.56 19.168 0.384 9.504-18.144 9.28-16.864 1.888-11.264 0.064-17.728-0.448-12.192z" />
</font>
</defs>
</svg>
